<?xml version="1.0" encoding="UTF-8" standalone="no"?>
<!-- Created with Inkscape (http://www.inkscape.org/) -->
<svg
   xmlns:svg="http://www.w3.org/2000/svg"
   xmlns="http://www.w3.org/2000/svg"
   version="1.0"
   width="425"
   height="425"
   id="svg1957">
  <defs
     id="defs1959" />
  <g
     id="layer1">
    <path
       d="M 0.255,0.12 L 424.445,0.12 L 424.745,424.88 L 0.255,424.88 L 0.255,0.12"
       style="fill:#0091ff;fill-rule:evenodd;stroke:none"
       id="path3162" />
    <path
       d="M 0.255,0.12 L 424.445,0.12 L 424.745,424.88 L 0.255,424.88 L 0.255,0.12 z "
       style="fill:none;stroke:#0091ff;stroke-width:0.071"
       id="path3164" />
    <path
       d="M 0.255,31.84 L 1.765,24.59 L 6.825,14.7 L 11.735,9.19 L 21.025,3.15 L 35.455,0.13 L 389.385,0.13 L 400.335,1.87 L 407.055,4.89 L 413.105,9.19 L 418.015,14.7 L 421.715,21.12 L 424.585,31.84 L 424.585,393.16 L 423.075,400.41 L 418.015,410.23 L 413.105,415.73 L 407.055,420.11 L 396.785,424.04 L 389.385,424.87 L 35.455,424.87 L 24.495,423.13 L 14.605,418.07 L 6.825,410.22 L 1.765,400.41 L 0.255,393.16 L 0.255,31.84"
       style="fill:#ffffff;fill-rule:evenodd;stroke:none"
       id="path3166" />
    <path
       d="M 17.775,35.54 L 18.606,30.03 L 21.095,25.12 L 25.025,21.2 L 32.655,18.03 L 387.295,17.74 L 394.895,18.71 L 399.805,21.2 L 403.735,25.12 L 406.905,32.75 L 406.905,392.25 L 405.175,397.46 L 399.805,403.73 L 394.895,406.3 L 389.385,407.13 L 32.655,406.91 L 27.365,405.24 L 21.095,399.88 L 18.606,394.9 L 17.925,392.25 L 17.775,35.54"
       style="fill:#0091ff;fill-rule:evenodd;stroke:none"
       id="path3168" />
    <path
       d="M 162.925,382.85 L 99.175,382.85 L 99.175,42.97 L 254.955,42.97 L 267.855,43.87 L 286.825,48.22 L 304.525,56.25 L 320.265,67.57 L 333.545,81.74 L 343.815,98.32 L 348.845,110.24 L 352.505,125.06 L 354.095,142.1 L 352.145,161.45 L 347.505,178.12 L 337.365,197.22 L 325.005,212.22 L 315.255,220.77 L 298.755,230.97 L 280.605,237.8 L 257.605,241.19 L 162.925,241.17 L 162.925,382.84"
       style="fill:#ffffff;fill-rule:evenodd;stroke:none"
       id="path3170" />
    <path
       d="M 162.925,106.72 L 254.955,106.72 L 265.976,108.52 L 275.875,113.62 L 283.755,121.57 L 288.695,131.54 L 290.345,142.63 L 288.395,153.65 L 283.155,163.48 L 275.125,171.2 L 268.525,174.8 L 261.405,176.9 L 257.655,177.43 L 162.925,177.43 L 162.925,106.71"
       style="fill:#0091ff;fill-rule:evenodd;stroke:none"
       id="path3172" />
  </g>
</svg>
